<?xml version="1.0" encoding="UTF-8" standalone="no"?>
<!DOCTYPE svg PUBLIC "-//W3C//DTD SVG 1.1//EN" "http://www.w3.org/Graphics/SVG/1.1/DTD/svg11.dtd">
<svg width="100%" height="100%" viewBox="0 0 32 32" version="1.1" xmlns="http://www.w3.org/2000/svg" xmlns:xlink="http://www.w3.org/1999/xlink" xml:space="preserve" xmlns:serif="http://www.serif.com/" style="fill-rule:evenodd;clip-rule:evenodd;stroke-linejoin:round;stroke-miterlimit:2;">
    <path d="M32,8L32,24C32,28.415 28.415,32 24,32L8,32C3.585,32 0,28.415 0,24L0,8C0,3.585 3.585,0 8,0L24,0C28.415,0 32,3.585 32,8Z" style="fill:rgb(25,60,184);"/>
    <g transform="matrix(1,0,0,1,-2.98294,10)">
        <g transform="matrix(24,0,0,24,11.7115,14.3638)">
            <path d="M0.063,-0C0.056,-0 0.051,-0.002 0.046,-0.007C0.041,-0.012 0.039,-0.018 0.039,-0.025L0.039,-0.095C0.039,-0.105 0.041,-0.113 0.045,-0.119C0.049,-0.125 0.052,-0.129 0.054,-0.132L0.402,-0.582L0.073,-0.582C0.066,-0.582 0.06,-0.584 0.055,-0.589C0.051,-0.593 0.049,-0.599 0.049,-0.606L0.049,-0.675C0.049,-0.683 0.051,-0.689 0.055,-0.693C0.06,-0.698 0.066,-0.7 0.073,-0.7L0.551,-0.7C0.558,-0.7 0.564,-0.698 0.569,-0.693C0.573,-0.689 0.576,-0.683 0.576,-0.675L0.576,-0.606C0.576,-0.598 0.574,-0.591 0.572,-0.586C0.569,-0.58 0.566,-0.575 0.563,-0.571L0.222,-0.119L0.562,-0.119C0.57,-0.119 0.576,-0.117 0.58,-0.112C0.585,-0.108 0.587,-0.102 0.587,-0.094L0.587,-0.024C0.587,-0.017 0.585,-0.011 0.58,-0.007C0.576,-0.002 0.57,-0 0.562,-0L0.063,-0Z" style="fill:white;fill-rule:nonzero;"/>
        </g>
        <g transform="matrix(24,0,0,24,26.719,14.3638)">
        </g>
    </g>
</svg>
